<?xml version="1.0" encoding="UTF-8"?>
<svg width="95px" height="20px" viewBox="0 0 95 20" version="1.1" xmlns="http://www.w3.org/2000/svg" xmlns:xlink="http://www.w3.org/1999/xlink">
    <!-- Generator: Sketch 59 (86127) - https://sketch.com -->
    <title>Group 19</title>
    <desc>Created with Sketch.</desc>
    <g id="Page-1" stroke="none" stroke-width="1" fill="none" fill-rule="evenodd">
        <g id="1" transform="translate(-72.000000, -60.000000)">
            <g id="Group-19" transform="translate(72.000000, 60.000000)">
                <path d="M38.9,16.798 C38.6239986,16.798 38.4050008,16.7200008 38.243,16.564 C38.0809992,16.4079992 38,16.1980013 38,15.934 L38,4.954 C38,4.67799862 38.0839992,4.45300087 38.252,4.279 C38.4200008,4.10499913 38.6419986,4.018 38.918,4.018 C39.2060014,4.018 39.4339992,4.10199916 39.602,4.27 C39.7700008,4.43800084 39.854,4.66599856 39.854,4.954 L39.854,15.25 L45.326,15.25 C45.6020014,15.25 45.8149992,15.3159993 45.965,15.448 C46.1150007,15.5800007 46.19,15.7719987 46.19,16.024 C46.19,16.2760013 46.1150007,16.4679993 45.965,16.6 C45.8149992,16.7320007 45.6020014,16.798 45.326,16.798 L38.9,16.798 Z M50.5770899,16.888 C50.3130885,16.888 50.0940907,16.8160007 49.9200899,16.672 C49.746089,16.5279993 49.6590899,16.3120014 49.6590899,16.024 L49.6590899,8.716 C49.6590899,8.42799856 49.746089,8.20900075 49.9200899,8.059 C50.0940907,7.90899925 50.3130885,7.834 50.5770899,7.834 C50.8410912,7.834 51.057089,7.90899925 51.2250899,8.059 C51.3930907,8.20900075 51.4770899,8.42799856 51.4770899,8.716 L51.4770899,16.024 C51.4770899,16.3120014 51.3930907,16.5279993 51.2250899,16.672 C51.057089,16.8160007 50.8410912,16.888 50.5770899,16.888 Z M50.5770899,6.07 C50.2290881,6.07 49.9530909,5.97400096 49.7490899,5.782 C49.5450888,5.58999904 49.4430899,5.33800156 49.4430899,5.026 C49.4430899,4.71399844 49.5450888,4.46500093 49.7490899,4.279 C49.9530909,4.09299907 50.2290881,4 50.5770899,4 C50.9130915,4 51.1860888,4.09299907 51.3960899,4.279 C51.6060909,4.46500093 51.7110899,4.71399844 51.7110899,5.026 C51.7110899,5.33800156 51.6090909,5.58999904 51.4050899,5.782 C51.2010888,5.97400096 50.9250916,6.07 50.5770899,6.07 Z M60.7781797,7.798 C62.8781902,7.798 63.9281797,8.97998818 63.9281797,11.344 L63.9281797,16.024 C63.9281797,16.3000014 63.8471805,16.5129992 63.6851797,16.663 C63.5231789,16.8130007 63.2981812,16.888 63.0101797,16.888 C62.7341783,16.888 62.5151805,16.8100008 62.3531797,16.654 C62.1911789,16.4979992 62.1101797,16.2880013 62.1101797,16.024 L62.1101797,11.434 C62.1101797,10.6899963 61.9631812,10.1440017 61.6691797,9.796 C61.3751782,9.44799826 60.9161828,9.274 60.2921797,9.274 C59.5601761,9.274 58.9721819,9.50199772 58.5281797,9.958 C58.0841775,10.4140023 57.8621797,11.0259962 57.8621797,11.794 L57.8621797,16.024 C57.8621797,16.2880013 57.7811805,16.4979992 57.6191797,16.654 C57.4571789,16.8100008 57.2381811,16.888 56.9621797,16.888 C56.6861783,16.888 56.4641806,16.8100008 56.2961797,16.654 C56.1281789,16.4979992 56.0441797,16.2880013 56.0441797,16.024 L56.0441797,8.698 C56.0441797,8.44599874 56.1311788,8.23900081 56.3051797,8.077 C56.4791806,7.91499919 56.6981784,7.834 56.9621797,7.834 C57.226181,7.834 57.4361789,7.91199922 57.5921797,8.068 C57.7481805,8.22400078 57.8261797,8.42799874 57.8261797,8.68 L57.8261797,9.418 C58.1141812,8.88999736 58.5161771,8.48800138 59.0321797,8.212 C59.5481823,7.93599862 60.1301765,7.798 60.7781797,7.798 Z M72.7432696,15.502 C73.0072709,15.5260001 73.196269,15.5949994 73.3102696,15.709 C73.4242701,15.8230006 73.4812696,15.981999 73.4812696,16.186 C73.4812696,16.4260012 73.3882705,16.6089994 73.2022696,16.735 C73.0162686,16.8610006 72.7432714,16.9120001 72.3832696,16.888 L71.8972696,16.852 C70.9252647,16.7799996 70.199272,16.4830026 69.7192696,15.961 C69.2392672,15.4389974 68.9992696,14.6680051 68.9992696,13.648 L68.9992696,9.418 L67.9192696,9.418 C67.3912669,9.418 67.1272696,9.18400234 67.1272696,8.716 C67.1272696,8.49999892 67.1962689,8.32900063 67.3342696,8.203 C67.4722703,8.07699937 67.6672683,8.014 67.9192696,8.014 L68.9992696,8.014 L68.9992696,6.16 C68.9992696,5.88399862 69.0802688,5.66800078 69.2422696,5.512 C69.4042704,5.35599922 69.6232682,5.278 69.8992696,5.278 C70.175271,5.278 70.3972687,5.35599922 70.5652696,5.512 C70.7332704,5.66800078 70.8172696,5.88399862 70.8172696,6.16 L70.8172696,8.014 L72.5992696,8.014 C72.8512708,8.014 73.0462689,8.07699937 73.1842696,8.203 C73.3222703,8.32900063 73.3912696,8.49999892 73.3912696,8.716 C73.3912696,8.94400114 73.3222703,9.1179994 73.1842696,9.238 C73.0462689,9.3580006 72.8512708,9.418 72.5992696,9.418 L70.8172696,9.418 L70.8172696,13.774 C70.8172696,14.3380028 70.9342684,14.7519987 71.1682696,15.016 C71.4022707,15.2800013 71.7592672,15.4299998 72.2392696,15.466 L72.7432696,15.502 Z M80.6403594,16.924 C79.7763551,16.924 79.0173627,16.7380019 78.3633594,16.366 C77.7093562,15.9939981 77.2053612,15.4630034 76.8513594,14.773 C76.4973577,14.0829965 76.3203594,13.2820046 76.3203594,12.37 C76.3203594,11.4459954 76.4973577,10.6390034 76.8513594,9.949 C77.2053612,9.25899655 77.7093562,8.72800186 78.3633594,8.356 C79.0173627,7.98399814 79.7763551,7.798 80.6403594,7.798 C81.5043637,7.798 82.2633562,7.98399814 82.9173594,8.356 C83.5713627,8.72800186 84.0753577,9.25899655 84.4293594,9.949 C84.7833612,10.6390034 84.9603594,11.4459954 84.9603594,12.37 C84.9603594,13.2820046 84.7833612,14.0829965 84.4293594,14.773 C84.0753577,15.4630034 83.5713627,15.9939981 82.9173594,16.366 C82.2633562,16.7380019 81.5043637,16.924 80.6403594,16.924 Z M80.6403594,15.484 C81.4443634,15.484 82.0593573,15.2200026 82.4853594,14.692 C82.9113616,14.1639974 83.1243594,13.3900051 83.1243594,12.37 C83.1243594,11.361995 82.9083616,10.5910027 82.4763594,10.057 C82.0443573,9.52299733 81.4323634,9.256 80.6403594,9.256 C79.8483555,9.256 79.2363616,9.52299733 78.8043594,10.057 C78.3723573,10.5910027 78.1563594,11.361995 78.1563594,12.37 C78.1563594,13.3900051 78.3693573,14.1639974 78.7953594,14.692 C79.2213616,15.2200026 79.8363554,15.484 80.6403594,15.484 Z M93.6134493,7.834 C94.1894522,7.79799982 94.4774493,8.04399736 94.4774493,8.572 C94.4774493,8.83600132 94.4114499,9.03399934 94.2794493,9.166 C94.1694487,9.27600055 93.9927836,9.3485001 93.7494498,9.3835 L93.0554493,9.454 C92.2994455,9.52600036 91.7384511,9.78999772 91.3724493,10.246 C91.0064475,10.7020023 90.8234493,11.2539968 90.8234493,11.902 L90.8234493,16.024 C90.8234493,16.3120014 90.7394501,16.5279993 90.5714493,16.672 C90.4034484,16.8160007 90.1874506,16.888 89.9234493,16.888 C89.659448,16.888 89.4404502,16.8160007 89.2664493,16.672 C89.0924484,16.5279993 89.0054493,16.3120014 89.0054493,16.024 L89.0054493,8.698 C89.0054493,8.42199862 89.0924484,8.20900075 89.2664493,8.059 C89.4404502,7.90899925 89.659448,7.834 89.9234493,7.834 C90.1634505,7.834 90.3644485,7.90899925 90.5264493,8.059 C90.6884501,8.20900075 90.7694493,8.41599868 90.7694493,8.68 L90.7694493,9.544 C91.0094505,9.01599736 91.357447,8.61400138 91.8134493,8.338 C92.2694516,8.06199862 92.7854464,7.90000024 93.3614493,7.852 L93.6134493,7.834 Z" id="Lintor" fill="#EDEEFD" fill-rule="nonzero"></path>
                <circle id="Oval" stroke="#FFFFFF" stroke-width="4" opacity="0.381533668" cx="10" cy="10" r="8"></circle>
                <circle id="Oval" stroke="#FFFFFF" stroke-width="4" cx="17" cy="10" r="8"></circle>
            </g>
        </g>
    </g>
</svg>