<?xml version="1.0" encoding="UTF-8"?>
<svg width="160px" height="49px" viewBox="0 0 160 49" version="1.1" xmlns="http://www.w3.org/2000/svg" xmlns:xlink="http://www.w3.org/1999/xlink">
    <!-- Generator: Sketch 59 (86127) - https://sketch.com -->
    <title>Group</title>
    <desc>Created with Sketch.</desc>
    <g id="Page-1" stroke="none" stroke-width="1" fill="none" fill-rule="evenodd">
        <g id="5" transform="translate(-634.000000, -388.000000)">
            <g id="Group" transform="translate(634.000000, 388.000000)">
                <path d="M60.826,31.662 C61.0406677,31.662 61.2133327,31.7249994 61.344,31.851 C61.4746673,31.9770006 61.54,32.1426656 61.54,32.348 L61.54,35.358 C61.54,35.7873355 61.4840006,36.0906658 61.372,36.268 C61.2599994,36.4453342 61.0313351,36.5899994 60.686,36.702 C60.3126648,36.8326673 59.8786691,36.935333 59.384,37.01 C58.8893309,37.084667 58.4133356,37.122 57.956,37.122 C56.9386616,37.122 56.0566704,36.9213353 55.31,36.52 C54.5633296,36.1186647 53.9916687,35.5376705 53.595,34.777 C53.1983314,34.0163295 53,33.1086719 53,32.054 C53,31.0179948 53.1983314,30.1196705 53.595,29.359 C53.9916687,28.5983295 54.5539964,28.015002 55.282,27.609 C56.0100036,27.202998 56.8686617,27 57.858,27 C59.1740066,27 60.2519958,27.3546631 61.092,28.064 C61.2040006,28.1666672 61.2856664,28.2693328 61.337,28.372 C61.3883336,28.4746672 61.414,28.5959993 61.414,28.736 C61.414,28.9413344 61.3580006,29.1139993 61.246,29.254 C61.1339994,29.3940007 60.9986675,29.464 60.84,29.464 C60.7373328,29.464 60.6440004,29.4476668 60.56,29.415 C60.4759996,29.3823332 60.3780006,29.328667 60.266,29.254 C59.8553313,28.9646652 59.4726684,28.7616672 59.118,28.645 C58.7633316,28.5283327 58.3620022,28.47 57.914,28.47 C56.8966616,28.47 56.1290026,28.770997 55.611,29.373 C55.0929974,29.975003 54.834,30.8686607 54.834,32.054 C54.834,34.4806788 55.8979894,35.694 58.026,35.694 C58.6606698,35.694 59.2953302,35.6053342 59.93,35.428 L59.93,32.95 L58.348,32.95 C58.1239989,32.95 57.9490006,32.8940006 57.823,32.782 C57.6969994,32.6699994 57.634,32.5113344 57.634,32.306 C57.634,32.1006656 57.6969994,31.9420006 57.823,31.83 C57.9490006,31.7179994 58.1239989,31.662 58.348,31.662 L60.826,31.662 Z M66.918,37.108 C66.2179965,37.108 65.604336,36.9633348 65.077,36.674 C64.549664,36.3846652 64.1413348,35.969336 63.852,35.428 C63.5626652,34.886664 63.418,34.2566703 63.418,33.538 C63.418,32.8193297 63.5626652,32.1916693 63.852,31.655 C64.1413348,31.1183306 64.549664,30.7053348 65.077,30.416 C65.604336,30.1266652 66.2179965,29.982 66.918,29.982 C67.6180035,29.982 68.231664,30.1266652 68.759,30.416 C69.286336,30.7053348 69.6923319,31.1183306 69.977,31.655 C70.2616681,32.1916693 70.404,32.8193297 70.404,33.538 C70.404,34.2566703 70.2616681,34.886664 69.977,35.428 C69.6923319,35.969336 69.286336,36.3846652 68.759,36.674 C68.231664,36.9633348 67.6180035,37.108 66.918,37.108 Z M66.904,35.75 C67.4733362,35.75 67.9073318,35.5633352 68.206,35.19 C68.5046682,34.8166648 68.654,34.2660036 68.654,33.538 C68.654,32.8193297 68.5046682,32.2710019 68.206,31.893 C67.9073318,31.5149981 67.4780028,31.326 66.918,31.326 C66.3579972,31.326 65.9263349,31.5149981 65.623,31.893 C65.3196652,32.2710019 65.168,32.8193297 65.168,33.538 C65.168,34.2660036 65.3173318,34.8166648 65.616,35.19 C65.9146682,35.5633352 66.3439972,35.75 66.904,35.75 Z M75.348,37.108 C74.6479965,37.108 74.034336,36.9633348 73.507,36.674 C72.979664,36.3846652 72.5713348,35.969336 72.282,35.428 C71.9926652,34.886664 71.848,34.2566703 71.848,33.538 C71.848,32.8193297 71.9926652,32.1916693 72.282,31.655 C72.5713348,31.1183306 72.979664,30.7053348 73.507,30.416 C74.034336,30.1266652 74.6479965,29.982 75.348,29.982 C76.0480035,29.982 76.661664,30.1266652 77.189,30.416 C77.716336,30.7053348 78.1223319,31.1183306 78.407,31.655 C78.6916681,32.1916693 78.834,32.8193297 78.834,33.538 C78.834,34.2566703 78.6916681,34.886664 78.407,35.428 C78.1223319,35.969336 77.716336,36.3846652 77.189,36.674 C76.661664,36.9633348 76.0480035,37.108 75.348,37.108 Z M75.334,35.75 C75.9033362,35.75 76.3373318,35.5633352 76.636,35.19 C76.9346682,34.8166648 77.084,34.2660036 77.084,33.538 C77.084,32.8193297 76.9346682,32.2710019 76.636,31.893 C76.3373318,31.5149981 75.9080028,31.326 75.348,31.326 C74.7879972,31.326 74.3563349,31.5149981 74.053,31.893 C73.7496652,32.2710019 73.598,32.8193297 73.598,33.538 C73.598,34.2660036 73.7473318,34.8166648 74.046,35.19 C74.3446682,35.5633352 74.7739972,35.75 75.334,35.75 Z M86.452,30.01 C86.7133346,30.01 86.9233325,30.0846659 87.082,30.234 C87.2406675,30.3833341 87.32,30.5839987 87.32,30.836 L87.32,36.366 C87.32,37.4393387 87.0213363,38.2513306 86.424,38.802 C85.8266637,39.3526694 84.9446725,39.628 83.778,39.628 C82.7606616,39.628 81.9113367,39.4366686 81.23,39.054 C80.8846649,38.8486656 80.712,38.6013348 80.712,38.312 C80.712,38.1066656 80.7609995,37.9433339 80.859,37.822 C80.9570005,37.7006661 81.0853325,37.64 81.244,37.64 C81.3280004,37.64 81.4306661,37.6609998 81.552,37.703 L81.7375,37.77125 L81.7375,37.77125 L81.93,37.85 C82.2660017,37.9900007 82.5669987,38.097333 82.833,38.172 C83.0990013,38.246667 83.4046649,38.284 83.75,38.284 C84.9726728,38.284 85.584,37.6866726 85.584,36.492 L85.584,35.596 C85.3786656,35.9786686 85.080002,36.2749989 84.688,36.485 C84.295998,36.695001 83.8480025,36.8 83.344,36.8 C82.7466637,36.8 82.2170023,36.6576681 81.755,36.373 C81.2929977,36.0883319 80.9313346,35.6893359 80.67,35.176 C80.4086654,34.6626641 80.278,34.0700034 80.278,33.398 C80.278,32.7259966 80.4063321,32.1310026 80.663,31.613 C80.919668,31.0949974 81.281331,30.6936681 81.748,30.409 C82.214669,30.1243319 82.7466637,29.982 83.344,29.982 C83.8480025,29.982 84.295998,30.0869989 84.688,30.297 C85.080002,30.507001 85.3786656,30.8033314 85.584,31.186 L85.584,30.822 C85.584,30.5793321 85.6633325,30.3833341 85.822,30.234 C85.9806675,30.0846659 86.1906654,30.01 86.452,30.01 Z M83.806,35.442 C84.3660028,35.442 84.8023318,35.2600018 85.115,34.896 C85.4276682,34.5319982 85.584,34.0326698 85.584,33.398 C85.584,32.7539968 85.4276682,32.2500018 85.115,31.886 C84.8023318,31.5219982 84.3660028,31.34 83.806,31.34 C83.2553306,31.34 82.8213349,31.5219982 82.504,31.886 C82.1866651,32.2500018 82.028,32.7539968 82.028,33.398 C82.028,34.0326698 82.1866651,34.5319982 82.504,34.896 C82.8213349,35.2600018 83.2553306,35.442 83.806,35.442 Z M90.374,37.08 C90.1219987,37.08 89.9143342,37.0076674 89.751,36.863 C89.5876659,36.7183326 89.506,36.510668 89.506,36.24 L89.506,27.882 C89.506,27.611332 89.5876659,27.4060007 89.751,27.266 C89.9143342,27.1259993 90.1219987,27.056 90.374,27.056 C90.6260013,27.056 90.8359992,27.1259993 91.004,27.266 C91.1720008,27.4060007 91.256,27.611332 91.256,27.882 L91.256,36.24 C91.256,36.510668 91.1720008,36.7183326 91.004,36.863 C90.8359992,37.0076674 90.6260013,37.08 90.374,37.08 Z M98.86,35.12 C99.0186675,35.12 99.1469995,35.1806661 99.245,35.302 C99.3430005,35.4233339 99.392,35.5866656 99.392,35.792 C99.392,36.0813348 99.2193351,36.323999 98.874,36.52 C98.5566651,36.6973342 98.1973353,36.8396661 97.796,36.947 C97.3946647,37.0543339 97.0120018,37.108 96.648,37.108 C95.5466612,37.108 94.6740032,36.7906698 94.03,36.156 C93.3859968,35.5213302 93.064,34.6533388 93.064,33.552 C93.064,32.8519965 93.2039986,32.231336 93.484,31.69 C93.7640014,31.148664 94.1583308,30.7286682 94.667,30.43 C95.1756692,30.1313318 95.7519968,29.982 96.396,29.982 C97.0120031,29.982 97.5486644,30.117332 98.006,30.388 C98.4633356,30.658668 98.8179987,31.0413309 99.07,31.536 C99.3220013,32.0306691 99.448,32.6139966 99.448,33.286 C99.448,33.6873353 99.2706684,33.888 98.916,33.888 L94.786,33.888 C94.8420003,34.5320032 95.0239985,35.0056651 95.332,35.309 C95.6400015,35.6123348 96.0879971,35.764 96.676,35.764 C96.9746682,35.764 97.2383322,35.726667 97.467,35.652 C97.6956678,35.577333 97.9546652,35.4746673 98.244,35.344 C98.5240014,35.1946659 98.7293327,35.12 98.86,35.12 Z M96.438,31.214 C95.9619976,31.214 95.5816681,31.3633318 95.297,31.662 C95.0123319,31.9606682 94.8420003,32.3899972 94.786,32.95 L97.95,32.95 C97.9313332,32.3806638 97.7913346,31.9490015 97.53,31.655 C97.2686654,31.3609985 96.904669,31.214 96.438,31.214 Z M106.48,37.08 C106.209332,37.08 105.992334,36.9983341 105.829,36.835 C105.665666,36.6716658 105.584,36.4500014 105.584,36.17 L105.584,27.98 C105.584,27.709332 105.660999,27.4993341 105.815,27.35 C105.969001,27.2006659 106.181332,27.126 106.452,27.126 L109.896,27.126 C110.950672,27.126 111.771997,27.389664 112.36,27.917 C112.948003,28.444336 113.242,29.1839952 113.242,30.136 C113.242,31.0880048 112.948003,31.8299973 112.36,32.362 C111.771997,32.8940027 110.950672,33.16 109.896,33.16 L107.39,33.16 L107.39,36.17 C107.39,36.4500014 107.308334,36.6716658 107.145,36.835 C106.981666,36.9983341 106.760001,37.08 106.48,37.08 Z M109.672,31.774 C110.91334,31.774 111.534,31.2326721 111.534,30.15 C111.534,29.0673279 110.91334,28.526 109.672,28.526 L107.39,28.526 L107.39,31.774 L109.672,31.774 Z M115.918,37.08 C115.665999,37.08 115.458334,37.0076674 115.295,36.863 C115.131666,36.7183326 115.05,36.510668 115.05,36.24 L115.05,27.882 C115.05,27.611332 115.131666,27.4060007 115.295,27.266 C115.458334,27.1259993 115.665999,27.056 115.918,27.056 C116.170001,27.056 116.379999,27.1259993 116.548,27.266 C116.716001,27.4060007 116.8,27.611332 116.8,27.882 L116.8,36.24 C116.8,36.510668 116.716001,36.7183326 116.548,36.863 C116.379999,37.0076674 116.170001,37.08 115.918,37.08 Z M121.954,29.982 C122.906005,29.982 123.612998,30.2176643 124.075,30.689 C124.537002,31.1603357 124.768,31.8766619 124.768,32.838 L124.768,36.254 C124.768,36.5060013 124.693334,36.7043326 124.544,36.849 C124.394666,36.9936674 124.189335,37.066 123.928,37.066 C123.685332,37.066 123.487001,36.9913341 123.333,36.842 C123.178999,36.6926659 123.102,36.4966679 123.102,36.254 L123.102,35.946 C122.943333,36.3100018 122.693668,36.5946656 122.353,36.8 C122.012332,37.0053344 121.618002,37.108 121.17,37.108 C120.712664,37.108 120.297335,37.0146676 119.924,36.828 C119.550665,36.6413324 119.256668,36.3846683 119.042,36.058 C118.827332,35.7313317 118.72,35.3673353 118.72,34.966 C118.72,34.4619975 118.848332,34.0653348 119.105,33.776 C119.361668,33.4866652 119.77933,33.2766673 120.358,33.146 C120.872373,33.0298513 121.560038,32.965325 122.421011,32.9524197 L123.102,32.95 L123.102,32.628 C123.102,32.1706644 123.004001,31.837001 122.808,31.627 C122.611999,31.4169989 122.294669,31.312 121.856,31.312 C121.585332,31.312 121.310001,31.3516663 121.03,31.431 C120.749999,31.5103337 120.418669,31.6246659 120.036,31.774 C119.793332,31.8953339 119.616001,31.956 119.504,31.956 C119.335999,31.956 119.198334,31.8953339 119.091,31.774 C118.983666,31.6526661 118.93,31.494001 118.93,31.298 C118.93,31.1393325 118.969666,31.0016672 119.049,30.885 C119.128334,30.7683327 119.261332,30.6586672 119.448,30.556 C119.774668,30.3786658 120.164331,30.2386672 120.617,30.136 C121.069669,30.0333328 121.515331,29.982 121.954,29.982 Z M121.52,35.848 C121.986669,35.848 122.366999,35.6916682 122.661,35.379 C122.955001,35.0663318 123.102,34.6626691 123.102,34.168 L123.102,33.874 L122.85,33.874 C122.224664,33.874 121.739335,33.9019997 121.394,33.958 C121.048665,34.0140003 120.801334,34.1119993 120.652,34.252 C120.502666,34.3920007 120.428,34.5833321 120.428,34.826 C120.428,35.1246682 120.532999,35.3696657 120.743,35.561 C120.953001,35.7523343 121.211998,35.848 121.52,35.848 Z M131.7,30.514 C131.774667,30.3459992 131.874999,30.2223337 132.001,30.143 C132.127001,30.0636663 132.264666,30.024 132.414,30.024 C132.628668,30.024 132.822332,30.0963326 132.995,30.241 C133.167668,30.3856674 133.254,30.5653323 133.254,30.78 C133.254,30.8826672 133.226,30.9899994 133.17,31.102 L129.348,39.11 C129.189333,39.4273349 128.942002,39.586 128.606,39.586 C128.391332,39.586 128.202334,39.518334 128.039,39.383 C127.875666,39.247666 127.794,39.0773344 127.794,38.872 C127.794,38.7693328 127.822,38.6526673 127.878,38.522 L128.83,36.52 L126.226,31.102 C126.179333,31.0086662 126.156,30.9013339 126.156,30.78 C126.156,30.5653323 126.246999,30.3833341 126.429,30.234 C126.611001,30.0846659 126.818666,30.01 127.052,30.01 C127.210667,30.01 127.355333,30.0496663 127.486,30.129 C127.616667,30.2083337 127.719333,30.3319992 127.794,30.5 L129.754,34.826 L131.7,30.514 Z" id="GooglePlay" fill="#3B566E" fill-rule="nonzero"></path>
                <rect id="button" stroke="#3B566E" x="0.5" y="0.5" width="159" height="47.0751174" rx="5"></rect>
                <path d="M56.0534771,17.1742958 C56.4239308,17.1742958 56.7283585,17.1357838 56.9667694,17.0587588 C57.392241,16.9157123 57.7406823,16.640627 58.0121039,16.2334947 C58.2285075,15.9070553 58.3843892,15.4889257 58.4797535,14.9790933 C58.5347714,14.674661 58.5622799,14.3922402 58.5622799,14.1318222 C58.5622799,13.1304968 58.3633016,12.3529224 57.9653389,11.7990757 C57.5673762,11.245229 56.9264275,10.9683099 56.0424736,10.9683099 L54.1003521,10.9683099 L54.1003521,17.1742958 L56.0534771,17.1742958 Z M53,10.0275088 L56.2735475,10.0275088 C57.3849087,10.0275088 58.2468426,10.4217977 58.859375,11.2103873 C59.4058859,11.9219519 59.6791373,12.8334011 59.6791373,13.9447623 C59.6791373,14.8030413 59.517754,15.5787817 59.1949824,16.272007 C58.6264643,17.4970719 57.6489946,18.1095951 56.262544,18.1095951 L53,18.1095951 L53,10.0275088 Z M64.1952025,17.4713908 C64.8517492,17.4713908 65.3019721,17.2228971 65.5458847,16.7259023 C65.7897973,16.2289074 65.9117518,15.675986 65.9117518,15.0671215 C65.9117518,14.5169427 65.8237245,14.0694706 65.6476673,13.7246919 C65.36891,13.1818488 64.8884277,12.9104313 64.206206,12.9104313 C63.6010093,12.9104313 63.1608729,13.141503 62.8857835,13.6036532 C62.6106941,14.0658034 62.4731514,14.6233095 62.4731514,15.2761884 C62.4731514,15.9033922 62.6106941,16.4260542 62.8857835,16.8441901 C63.1608729,17.262326 63.5973415,17.4713908 64.1952025,17.4713908 Z M64.2337148,12.0466549 C64.9929616,12.0466549 65.6348272,12.2997334 66.159331,12.8058979 C66.6838348,13.3120624 66.9460828,14.0566265 66.9460828,15.0396127 C66.9460828,15.9895881 66.7150111,16.7744981 66.252861,17.3943662 C65.7907108,18.0142343 65.0736551,18.3241637 64.1016726,18.3241637 C63.2910758,18.3241637 62.6473762,18.0499954 62.1705546,17.5016505 C61.693733,16.9533057 61.4553257,16.2169941 61.4553257,15.2926937 C61.4553257,14.3023718 61.7065703,13.513794 62.2090669,12.9269366 C62.7115636,12.3400792 63.3864395,12.0466549 64.2337148,12.0466549 Z M69.4815142,12.2172095 L70.6148768,16.8606954 L71.7647448,12.2172095 L72.8761004,12.2172095 L74.0314701,16.8331866 L75.2363557,12.2172095 L76.2266726,12.2172095 L74.5156251,18.1095951 L73.4867958,18.1095951 L72.287412,13.5486356 L71.1265406,18.1095951 L70.0977113,18.1095951 L68.3976673,12.2172095 L69.4815142,12.2172095 Z M78.0633804,12.2172095 L79.0041814,12.2172095 L79.0041814,13.0534771 C79.2829387,12.7086984 79.5781969,12.4611216 79.8899649,12.3107394 C80.2017329,12.1603572 80.5483403,12.0851673 80.9297976,12.0851673 C81.7660694,12.0851673 82.3309112,12.3767576 82.6243399,12.9599472 C82.7857257,13.2790509 82.8664174,13.7356925 82.8664174,14.3298856 L82.8664174,18.1095951 L81.8595952,18.1095951 L81.8595952,14.3959067 C81.8595952,14.0364565 81.806412,13.7467 81.7000441,13.5266285 C81.5239869,13.1598426 81.204888,12.9764525 80.7427378,12.9764525 C80.5079948,12.9764525 80.3154351,13.0002932 80.1650529,13.0479754 C79.8936314,13.1286682 79.6552241,13.2900516 79.4498241,13.5321303 C79.2847704,13.7265268 79.1774872,13.927339 79.1279711,14.1345731 C79.078455,14.3418071 79.0536973,14.6379822 79.0536973,15.0231074 L79.0536973,18.1095951 L78.0633804,18.1095951 L78.0633804,12.2172095 Z M85.258803,10.0275088 L86.2491199,10.0275088 L86.2491199,18.1095951 L85.258803,18.1095951 L85.258803,10.0275088 Z M90.9742519,17.4713908 C91.6307986,17.4713908 92.0810216,17.2228971 92.3249342,16.7259023 C92.5688468,16.2289074 92.6908012,15.675986 92.6908012,15.0671215 C92.6908012,14.5169427 92.6027739,14.0694706 92.4267167,13.7246919 C92.1479595,13.1818488 91.6674772,12.9104313 90.9852555,12.9104313 C90.3800588,12.9104313 89.9399223,13.141503 89.6648329,13.6036532 C89.3897435,14.0658034 89.2522009,14.6233095 89.2522009,15.2761884 C89.2522009,15.9033922 89.3897435,16.4260542 89.6648329,16.8441901 C89.9399223,17.262326 90.376391,17.4713908 90.9742519,17.4713908 Z M91.0127643,12.0466549 C91.772011,12.0466549 92.4138767,12.2997334 92.9383805,12.8058979 C93.4628843,13.3120624 93.7251322,14.0566265 93.7251322,15.0396127 C93.7251322,15.9895881 93.4940606,16.7744981 93.0319104,17.3943662 C92.5697602,18.0142343 91.8527046,18.3241637 90.880722,18.3241637 C90.0701252,18.3241637 89.4264257,18.0499954 88.9496041,17.5016505 C88.4727824,16.9533057 88.2343752,16.2169941 88.2343752,15.2926937 C88.2343752,14.3023718 88.4856197,13.513794 88.9881164,12.9269366 C89.490613,12.3400792 90.1654889,12.0466549 91.0127643,12.0466549 Z M96.5631604,16.5415933 C96.5631604,16.8276863 96.6676928,17.0532562 96.8767608,17.2183099 C97.0858287,17.3833635 97.3334055,17.4658891 97.6194985,17.4658891 C97.967945,17.4658891 98.305383,17.3851974 98.6318224,17.2238116 C99.1820012,16.9560579 99.4570865,16.5177554 99.4570865,15.9088908 L99.4570865,15.1111356 C99.3360471,15.1881606 99.1801655,15.2523472 98.9894368,15.3036972 C98.7987082,15.3550472 98.6116502,15.3917252 98.4282573,15.4137324 L97.8285654,15.490757 C97.4691152,15.5384392 97.1995316,15.6136292 97.0198066,15.7163292 C96.7153743,15.8887186 96.5631604,16.1638039 96.5631604,16.5415933 Z M98.961928,14.5389525 C99.1893353,14.5096096 99.3415491,14.4142467 99.4185742,14.2528609 C99.4625885,14.1648323 99.4845953,14.0382931 99.4845953,13.8732394 C99.4845953,13.5357964 99.3644747,13.2909705 99.12423,13.1387544 C98.8839852,12.9865383 98.5401286,12.9104313 98.0926499,12.9104313 C97.5754818,12.9104313 97.2087014,13.0498079 96.9922978,13.3285651 C96.8712584,13.4826152 96.7924006,13.7118529 96.755722,14.0162852 L95.8314263,14.0162852 C95.8497656,13.2900492 96.085422,12.7848092 96.5384025,12.5005502 C96.9913831,12.2162911 97.5167959,12.0741637 98.1146569,12.0741637 C98.8078822,12.0741637 99.3708901,12.2062047 99.8036974,12.4702905 C100.232837,12.7343763 100.447403,13.1451703 100.447403,13.7026849 L100.447403,17.0972711 C100.447403,17.1999712 100.468493,17.2824968 100.510674,17.3448504 C100.552854,17.407204 100.641798,17.4383803 100.777509,17.4383803 C100.821523,17.4383803 100.871039,17.4356294 100.926057,17.4301276 C100.981074,17.4246259 101.039759,17.4163733 101.102113,17.4053697 L101.102113,18.1371039 C100.948063,18.1811182 100.830693,18.2086267 100.75,18.2196303 C100.669307,18.2306339 100.559273,18.2361356 100.419895,18.2361356 C100.078784,18.2361356 99.831207,18.115098 99.6771569,17.8730194 C99.596464,17.7446443 99.5396131,17.563088 99.5066023,17.3283451 C99.3048701,17.5924309 99.0151136,17.8216686 98.6373242,18.0160651 C98.2595347,18.2104617 97.843239,18.3076585 97.3884245,18.3076585 C96.8419136,18.3076585 96.3953585,18.1416903 96.0487458,17.8097491 C95.7021332,17.4778079 95.5288294,17.0624291 95.5288294,16.5636004 C95.5288294,16.0170894 95.6993823,15.5934581 96.0404932,15.2926937 C96.381604,14.9919292 96.8290761,14.8067052 97.3829228,14.7370158 L98.961928,14.5389525 Z M103.599032,15.2321743 C103.599032,15.863046 103.732907,16.3912097 104.00066,16.8166813 C104.268414,17.2421529 104.697547,17.4548856 105.288072,17.4548856 C105.746555,17.4548856 106.123422,17.2577411 106.418684,16.8634463 C106.713947,16.4691515 106.861576,15.9033928 106.861576,15.1661532 C106.861576,14.4215778 106.709362,13.8704903 106.40493,13.5128741 C106.100498,13.1552579 105.724548,12.9764525 105.277069,12.9764525 C104.77824,12.9764525 104.373865,13.1671783 104.063931,13.5486356 C103.753997,13.9300929 103.599032,14.4912668 103.599032,15.2321743 Z M105.090009,12.1126761 C105.541156,12.1126761 105.918939,12.208039 106.223372,12.3987676 C106.399429,12.5088034 106.599324,12.7013631 106.823064,12.9764525 L106.823064,10 L107.774868,10 L107.774868,18.1095951 L106.883583,18.1095951 L106.883583,17.2898327 C106.652508,17.6529508 106.379257,17.9151987 106.063821,18.0765845 C105.748385,18.2379703 105.387106,18.318662 104.979974,18.318662 C104.323427,18.318662 103.754918,18.0426597 103.274428,17.490647 C102.793939,16.9386343 102.553697,16.2041566 102.553697,15.2871919 C102.553697,14.428913 102.772849,13.6852658 103.211158,13.056228 C103.649467,12.4271902 104.275744,12.1126761 105.090009,12.1126761 Z M116.509903,17.4713908 C117.16645,17.4713908 117.616673,17.2228971 117.860586,16.7259023 C118.104498,16.2289074 118.226453,15.675986 118.226453,15.0671215 C118.226453,14.5169427 118.138425,14.0694706 117.962368,13.7246919 C117.683611,13.1818488 117.203129,12.9104313 116.520907,12.9104313 C115.91571,12.9104313 115.475574,13.141503 115.200484,13.6036532 C114.925395,14.0658034 114.787852,14.6233095 114.787852,15.2761884 C114.787852,15.9033922 114.925395,16.4260542 115.200484,16.8441901 C115.475574,17.262326 115.912043,17.4713908 116.509903,17.4713908 Z M116.548416,12.0466549 C117.307663,12.0466549 117.949528,12.2997334 118.474032,12.8058979 C118.998536,13.3120624 119.260784,14.0566265 119.260784,15.0396127 C119.260784,15.9895881 119.029712,16.7744981 118.567562,17.3943662 C118.105412,18.0142343 117.388356,18.3241637 116.416374,18.3241637 C115.605777,18.3241637 114.962077,18.0499954 114.485256,17.5016505 C114.008434,16.9533057 113.770027,16.2169941 113.770027,15.2926937 C113.770027,14.3023718 114.021271,13.513794 114.523768,12.9269366 C115.026265,12.3400792 115.70114,12.0466549 116.548416,12.0466549 Z M121.339569,12.2172095 L122.28037,12.2172095 L122.28037,13.0534771 C122.559127,12.7086984 122.854386,12.4611216 123.166154,12.3107394 C123.477922,12.1603572 123.824529,12.0851673 124.205986,12.0851673 C125.042258,12.0851673 125.6071,12.3767576 125.900529,12.9599472 C126.061914,13.2790509 126.142606,13.7356925 126.142606,14.3298856 L126.142606,18.1095951 L125.135784,18.1095951 L125.135784,14.3959067 C125.135784,14.0364565 125.082601,13.7467 124.976233,13.5266285 C124.800176,13.1598426 124.481077,12.9764525 124.018926,12.9764525 C123.784183,12.9764525 123.591624,13.0002932 123.441242,13.0479754 C123.16982,13.1286682 122.931413,13.2900516 122.726013,13.5321303 C122.560959,13.7265268 122.453676,13.927339 122.40416,14.1345731 C122.354644,14.3418071 122.329886,14.6379822 122.329886,15.0231074 L122.329886,18.1095951 L121.339569,18.1095951 L121.339569,12.2172095 Z" id="Download-on" fill="#3B566E"></path>
                <path d="M12.0187793,37.0056077 L12.0187793,11.0725302 C12.0187793,10.1675725 12.5434295,9.38532414 13.304787,9.01408451 L28.3058335,24.034645 L13.298754,39.0610329 C12.5406567,38.6886644 12.0187793,37.9082313 12.0187793,37.0056077 Z M33.0649654,28.7997717 L16.6622771,38.2821253 L29.5986817,25.3290107 L33.0649654,28.7997717 Z M38.1635347,22.2210076 C38.7091027,22.6391404 39.0610329,23.2979931 39.0610329,24.0390689 C39.0610329,24.7690088 38.7197672,25.4190137 38.1882156,25.8379092 L34.7041069,27.8521466 L30.8913776,24.034645 L34.7015169,20.2195537 L38.1635347,22.2210076 Z M16.6718904,9.79672953 L33.0623755,19.2719896 L29.5986817,22.7401268 L16.6718904,9.79672953 Z" id="logo" fill="#3B566E" fill-rule="nonzero"></path>
            </g>
        </g>
    </g>
</svg>