<?xml version="1.0" encoding="UTF-8"?>
<svg width="160px" height="49px" viewBox="0 0 160 49" version="1.1" xmlns="http://www.w3.org/2000/svg" xmlns:xlink="http://www.w3.org/1999/xlink">
    <!-- Generator: Sketch 59 (86127) - https://sketch.com -->
    <title>Group 5</title>
    <desc>Created with Sketch.</desc>
    <g id="Page-1" stroke="none" stroke-width="1" fill="none" fill-rule="evenodd">
        <g id="5" transform="translate(-458.000000, -388.000000)">
            <g id="Group-5" transform="translate(458.000000, 388.000000)">
                <path d="M61.702,35.918 C61.7580003,36.0393339 61.786,36.1606661 61.786,36.282 C61.786,36.4966677 61.6996675,36.6786659 61.527,36.828 C61.3543325,36.9773341 61.1560011,37.052 60.932,37.052 C60.7826659,37.052 60.6426673,37.0123337 60.512,36.933 C60.3813327,36.8536663 60.278667,36.7300008 60.204,36.562 L59.364,34.686 L54.436,34.686 L53.596,36.562 C53.521333,36.7300008 53.4186673,36.8536663 53.288,36.933 C53.1573327,37.0123337 53.0126675,37.052 52.854,37.052 C52.6393323,37.052 52.4433342,36.9773341 52.266,36.828 C52.0886658,36.6786659 52,36.4966677 52,36.282 C52,36.1606661 52.0279997,36.0393339 52.084,35.918 L55.948,27.616 C56.0320004,27.4293324 56.1603325,27.2870005 56.333,27.189 C56.5056675,27.0909995 56.689999,27.042 56.886,27.042 C57.082001,27.042 57.2663325,27.0909995 57.439,27.189 C57.6116675,27.2870005 57.7399996,27.4293324 57.824,27.616 L61.702,35.918 Z M55.052,33.286 L58.748,33.286 L56.9,29.128 L55.052,33.286 Z M67.304,29.982 C67.8920029,29.982 68.4169977,30.1313318 68.879,30.43 C69.3410023,30.7286682 69.7003321,31.1509973 69.957,31.697 C70.213668,32.2430027 70.342,32.8706631 70.342,33.58 C70.342,34.2893369 70.213668,34.9099973 69.957,35.442 C69.7003321,35.9740027 69.3433356,36.3846652 68.886,36.674 C68.4286644,36.9633348 67.9013363,37.108 67.304,37.108 C66.8186642,37.108 66.3846686,37.0053344 66.002,36.8 C65.6193314,36.5946656 65.3253344,36.3100018 65.12,35.946 L65.12,38.802 C65.12,39.0446679 65.0406675,39.2359993 64.882,39.376 C64.7233325,39.5160007 64.5133346,39.586 64.252,39.586 C63.9906654,39.586 63.7783342,39.5113341 63.615,39.362 C63.4516659,39.2126659 63.37,39.0166679 63.37,38.774 L63.37,30.836 C63.37,30.5839987 63.4469992,30.3833341 63.601,30.234 C63.7550008,30.0846659 63.9626654,30.01 64.224,30.01 C64.4853346,30.01 64.6953325,30.0846659 64.854,30.234 C65.0126675,30.3833341 65.092,30.5839987 65.092,30.836 L65.092,31.186 C65.2973344,30.8033314 65.5936647,30.5070011 65.981,30.297 C66.3683353,30.0869989 66.8093309,29.982 67.304,29.982 Z M66.842,35.75 C67.3926694,35.75 67.8219985,35.5610019 68.13,35.183 C68.4380015,34.8049981 68.592,34.2706701 68.592,33.58 C68.592,32.8706631 68.4380015,32.320002 68.13,31.928 C67.8219985,31.535998 67.3926694,31.34 66.842,31.34 C66.2819972,31.34 65.8503349,31.5313314 65.547,31.914 C65.2436652,32.2966686 65.092,32.8426631 65.092,33.552 C65.092,34.2520035 65.2436652,34.7933314 65.547,35.176 C65.8503349,35.5586686 66.2819972,35.75 66.842,35.75 Z M76.098,29.982 C76.6860029,29.982 77.2109977,30.1313318 77.673,30.43 C78.1350023,30.7286682 78.4943321,31.1509973 78.751,31.697 C79.007668,32.2430027 79.136,32.8706631 79.136,33.58 C79.136,34.2893369 79.007668,34.9099973 78.751,35.442 C78.4943321,35.9740027 78.1373356,36.3846652 77.68,36.674 C77.2226644,36.9633348 76.6953363,37.108 76.098,37.108 C75.6126642,37.108 75.1786686,37.0053344 74.796,36.8 C74.4133314,36.5946656 74.1193344,36.3100018 73.914,35.946 L73.914,38.802 C73.914,39.0446679 73.8346675,39.2359993 73.676,39.376 C73.5173325,39.5160007 73.3073346,39.586 73.046,39.586 C72.7846654,39.586 72.5723342,39.5113341 72.409,39.362 C72.2456659,39.2126659 72.164,39.0166679 72.164,38.774 L72.164,30.836 C72.164,30.5839987 72.2409992,30.3833341 72.395,30.234 C72.5490008,30.0846659 72.7566654,30.01 73.018,30.01 C73.2793346,30.01 73.4893325,30.0846659 73.648,30.234 C73.8066675,30.3833341 73.886,30.5839987 73.886,30.836 L73.886,31.186 C74.0913344,30.8033314 74.3876647,30.5070011 74.775,30.297 C75.1623353,30.0869989 75.6033309,29.982 76.098,29.982 Z M75.636,35.75 C76.1866694,35.75 76.6159985,35.5610019 76.924,35.183 C77.2320015,34.8049981 77.386,34.2706701 77.386,33.58 C77.386,32.8706631 77.2320015,32.320002 76.924,31.928 C76.6159985,31.535998 76.1866694,31.34 75.636,31.34 C75.0759972,31.34 74.6443349,31.5313314 74.341,31.914 C74.0376652,32.2966686 73.886,32.8426631 73.886,33.552 C73.886,34.2520035 74.0376652,34.7933314 74.341,35.176 C74.6443349,35.5586686 75.0759972,35.75 75.636,35.75 Z M88.702,37.122 C87.9833297,37.122 87.3043365,37.0263343 86.665,36.835 C86.0256635,36.6436657 85.5053353,36.3846683 85.104,36.058 C84.8893323,35.8993325 84.782,35.6753348 84.782,35.386 C84.782,35.189999 84.8403328,35.0196674 84.957,34.875 C85.0736673,34.7303326 85.2113325,34.658 85.37,34.658 C85.5380008,34.658 85.7293323,34.7233327 85.944,34.854 C86.3453353,35.1433348 86.7653311,35.3533327 87.204,35.484 C87.6426689,35.6146673 88.1279973,35.68 88.66,35.68 C89.3413367,35.68 89.8639982,35.5610012 90.228,35.323 C90.5920018,35.0849988 90.774,34.7373356 90.774,34.28 C90.774,33.9253316 90.6036684,33.6523343 90.263,33.461 C89.9601837,33.2909251 89.4785419,33.1263832 88.8180627,32.9673706 L88.562,32.908 C87.7406626,32.7306658 87.0733359,32.5253345 86.56,32.292 C86.0466641,32.0586655 85.6593346,31.7600018 85.398,31.396 C85.1366654,31.0319982 85.006,30.5700028 85.006,30.01 C85.006,29.4313304 85.1693317,28.9133356 85.496,28.456 C85.8226683,27.9986644 86.2776638,27.641668 86.861,27.385 C87.4443363,27.1283321 88.0999964,27 88.828,27 C90.1626733,27 91.2499958,27.3546631 92.09,28.064 C92.2113339,28.1666672 92.2976664,28.2669995 92.349,28.365 C92.4003336,28.4630005 92.426,28.5866659 92.426,28.736 C92.426,28.932001 92.3676673,29.1023326 92.251,29.247 C92.1343328,29.3916674 91.9966675,29.464 91.838,29.464 C91.7446662,29.464 91.6583337,29.4500001 91.579,29.422 C91.4996663,29.3939999 91.3946673,29.342667 91.264,29.268 C90.8813314,28.9879986 90.5103351,28.780334 90.151,28.645 C89.7916649,28.509666 89.3506693,28.442 88.828,28.442 C88.1933302,28.442 87.6916685,28.5703321 87.323,28.827 C86.9543315,29.083668 86.77,29.4406644 86.77,29.898 C86.77,30.2806686 86.9333317,30.5746656 87.26,30.78 C87.5503718,30.9625194 88.0214129,31.1339748 88.6731348,31.2943702 L88.926,31.354 C89.7566708,31.5406676 90.4309974,31.7483322 90.949,31.977 C91.4670026,32.2056678 91.8636653,32.4973316 92.139,32.852 C92.4143347,33.2066684 92.552,33.6499973 92.552,34.182 C92.552,34.7606696 92.3910016,35.2716645 92.069,35.715 C91.7469984,36.1583356 91.2943363,36.5036654 90.711,36.751 C90.1276638,36.9983346 89.4580038,37.122 88.702,37.122 Z M97.902,35.778 C98.368669,35.8060001 98.602,36.015998 98.602,36.408 C98.602,36.6320011 98.5110009,36.8023328 98.329,36.919 C98.1469991,37.0356672 97.8880017,37.0846668 97.552,37.066 L97.174,37.038 C95.6059922,36.9259994 94.822,36.0860078 94.822,34.518 L94.822,31.466 L94.122,31.466 C93.8699987,31.466 93.676334,31.4100006 93.541,31.298 C93.405666,31.1859994 93.338,31.0226677 93.338,30.808 C93.338,30.5933323 93.405666,30.4300006 93.541,30.318 C93.676334,30.2059994 93.8699987,30.15 94.122,30.15 L94.822,30.15 L94.822,28.862 C94.822,28.6099987 94.9013325,28.4093341 95.06,28.26 C95.2186675,28.1106659 95.433332,28.036 95.704,28.036 C95.9653346,28.036 96.1753325,28.1106659 96.334,28.26 C96.4926675,28.4093341 96.572,28.6099987 96.572,28.862 L96.572,30.15 L97.762,30.15 C98.0140013,30.15 98.207666,30.2059994 98.343,30.318 C98.478334,30.4300006 98.546,30.5933323 98.546,30.808 C98.546,31.0226677 98.478334,31.1859994 98.343,31.298 C98.207666,31.4100006 98.0140013,31.466 97.762,31.466 L96.572,31.466 L96.572,34.644 C96.572,35.3346701 96.8893302,35.7033331 97.524,35.75 L97.902,35.778 Z M103.014,37.108 C102.313997,37.108 101.700336,36.9633348 101.173,36.674 C100.645664,36.3846652 100.237335,35.969336 99.948,35.428 C99.6586652,34.886664 99.514,34.2566703 99.514,33.538 C99.514,32.8193297 99.6586652,32.1916694 99.948,31.655 C100.237335,31.1183306 100.645664,30.7053348 101.173,30.416 C101.700336,30.1266652 102.313997,29.982 103.014,29.982 C103.714004,29.982 104.327664,30.1266652 104.855,30.416 C105.382336,30.7053348 105.788332,31.1183306 106.073,31.655 C106.357668,32.1916694 106.5,32.8193297 106.5,33.538 C106.5,34.2566703 106.357668,34.886664 106.073,35.428 C105.788332,35.969336 105.382336,36.3846652 104.855,36.674 C104.327664,36.9633348 103.714004,37.108 103.014,37.108 Z M103,35.75 C103.569336,35.75 104.003332,35.5633352 104.302,35.19 C104.600668,34.8166648 104.75,34.2660036 104.75,33.538 C104.75,32.8193297 104.600668,32.2710019 104.302,31.893 C104.003332,31.5149981 103.574003,31.326 103.014,31.326 C102.453997,31.326 102.022335,31.5149981 101.719,31.893 C101.415665,32.2710019 101.264,32.8193297 101.264,33.538 C101.264,34.2660036 101.413332,34.8166648 101.712,35.19 C102.010668,35.5633352 102.439997,35.75 103,35.75 Z M112.144,30.01 C112.386668,29.9913332 112.577999,30.0426661 112.718,30.164 C112.858001,30.2853339 112.928,30.4673321 112.928,30.71 C112.928,30.9620013 112.867334,31.1486661 112.746,31.27 C112.624666,31.3913339 112.405335,31.4706665 112.088,31.508 L111.668,31.55 C111.117331,31.6060003 110.713668,31.7926651 110.457,32.11 C110.200332,32.4273349 110.072,32.8239976 110.072,33.3 L110.072,36.24 C110.072,36.510668 109.988001,36.7183326 109.82,36.863 C109.651999,37.0076674 109.442001,37.08 109.19,37.08 C108.937999,37.08 108.730334,37.0076674 108.567,36.863 C108.403666,36.7183326 108.322,36.510668 108.322,36.24 L108.322,30.822 C108.322,30.5606654 108.403666,30.3600007 108.567,30.22 C108.730334,30.0799993 108.933332,30.01 109.176,30.01 C109.418668,30.01 109.614666,30.077666 109.764,30.213 C109.913334,30.348334 109.988,30.5419987 109.988,30.794 L109.988,31.354 C110.165334,30.9433313 110.428998,30.6260011 110.779,30.402 C111.129002,30.1779989 111.518665,30.0520001 111.948,30.024 L112.144,30.01 Z M116.878,29.982 C117.494003,29.982 118.030664,30.117332 118.488,30.388 C118.945336,30.658668 119.299999,31.0413309 119.552,31.536 C119.804001,32.0306691 119.93,32.6139966 119.93,33.286 C119.93,33.6873353 119.752668,33.888 119.398,33.888 L115.268,33.888 C115.324,34.5320032 115.505998,35.0056651 115.814,35.309 C116.122002,35.6123348 116.569997,35.764 117.158,35.764 C117.456668,35.764 117.720332,35.726667 117.949,35.652 C118.177668,35.577333 118.436665,35.4746673 118.726,35.344 C119.006001,35.1946659 119.211333,35.12 119.342,35.12 C119.500667,35.12 119.629,35.1806661 119.727,35.302 C119.825,35.4233339 119.874,35.5866656 119.874,35.792 C119.874,36.0813348 119.701335,36.323999 119.356,36.52 C119.038665,36.6973342 118.679335,36.8396661 118.278,36.947 C117.876665,37.0543339 117.494002,37.108 117.13,37.108 C116.028661,37.108 115.156003,36.7906698 114.512,36.156 C113.867997,35.5213302 113.546,34.6533388 113.546,33.552 C113.546,32.8519965 113.685999,32.231336 113.966,31.69 C114.246001,31.148664 114.640331,30.7286682 115.149,30.43 C115.657669,30.1313318 116.233997,29.982 116.878,29.982 Z M116.92,31.214 C116.443998,31.214 116.063668,31.3633318 115.779,31.662 C115.494332,31.9606682 115.324,32.3899972 115.268,32.95 L115.268,32.95 L118.432,32.95 C118.413333,32.3806638 118.273335,31.9490015 118.012,31.655 C117.750665,31.3609985 117.386669,31.214 116.92,31.214 Z" id="AppStore" fill="#3B566E" fill-rule="nonzero"></path>
                <rect id="button" stroke="#3B566E" x="0.5" y="0.5" width="159" height="47.0751174" rx="5"></rect>
                <path d="M55.0410798,17.341696 C55.4115335,17.341696 55.7159612,17.3031841 55.9543721,17.226159 C56.3798437,17.0831125 56.728285,16.8080273 56.9997066,16.400895 C57.2161102,16.0744555 57.3719919,15.6563259 57.4673562,15.1464935 C57.5223741,14.8420613 57.5498826,14.5596404 57.5498826,14.2992224 C57.5498826,13.297897 57.3509043,12.5203226 56.9529416,11.9664759 C56.5549789,11.4126293 55.9140302,11.1357101 55.0300763,11.1357101 L53.0879548,11.1357101 L53.0879548,17.341696 L55.0410798,17.341696 Z M51.9876027,10.194909 L55.2611502,10.194909 C56.3725114,10.194909 57.2344453,10.5891979 57.8469777,11.3777876 C58.3934886,12.0893521 58.66674,13.0008014 58.66674,14.1121626 C58.66674,14.9704415 58.5053567,15.746182 58.1825851,16.4394073 C57.614067,17.6644721 56.6365973,18.2769953 55.2501467,18.2769953 L51.9876027,18.2769953 L51.9876027,10.194909 Z M63.1828052,17.6387911 C63.8393519,17.6387911 64.2895748,17.3902974 64.5334874,16.8933025 C64.7774,16.3963077 64.8993545,15.8433863 64.8993545,15.2345217 C64.8993545,14.6843429 64.8113272,14.2368709 64.63527,13.8920921 C64.3565127,13.349249 63.8760304,13.0778316 63.1938087,13.0778316 C62.588612,13.0778316 62.1484756,13.3089032 61.8733862,13.7710534 C61.5982968,14.2332036 61.4607541,14.7907098 61.4607541,15.4435886 C61.4607541,16.0707925 61.5982968,16.5934545 61.8733862,17.0115904 C62.1484756,17.4297263 62.5849442,17.6387911 63.1828052,17.6387911 Z M63.2213175,12.2140552 C63.9805643,12.2140552 64.6224299,12.4671336 65.1469337,12.9732981 C65.6714375,13.4794626 65.9336855,14.2240268 65.9336855,15.2070129 C65.9336855,16.1569883 65.7026138,16.9418983 65.2404637,17.5617664 C64.7783135,18.1816346 64.0612578,18.491564 63.0892753,18.491564 C62.2786785,18.491564 61.6349789,18.2173956 61.1581573,17.6690508 C60.6813357,17.1207059 60.4429284,16.3843943 60.4429284,15.4600939 C60.4429284,14.469772 60.694173,13.6811942 61.1966696,13.0943369 C61.6991663,12.5074795 62.3740422,12.2140552 63.2213175,12.2140552 Z M68.4691169,12.3846097 L69.6024795,17.0280957 L70.7523475,12.3846097 L71.8637031,12.3846097 L73.0190728,17.0005869 L74.2239584,12.3846097 L75.2142753,12.3846097 L73.5032278,18.2769953 L72.4743985,18.2769953 L71.2750147,13.7160358 L70.1141433,18.2769953 L69.085314,18.2769953 L67.38527,12.3846097 L68.4691169,12.3846097 Z M77.0509831,12.3846097 L77.9917841,12.3846097 L77.9917841,13.2208773 C78.2705414,12.8760986 78.5657996,12.6285219 78.8775676,12.4781397 C79.1893356,12.3277575 79.535943,12.2525675 79.9174003,12.2525675 C80.7536721,12.2525675 81.3185139,12.5441579 81.6119426,13.1273474 C81.7733284,13.4464511 81.8540201,13.9030927 81.8540201,14.4972858 L81.8540201,18.2769953 L80.8471979,18.2769953 L80.8471979,14.5633069 C80.8471979,14.2038568 80.7940147,13.9141003 80.6876468,13.6940288 C80.5115896,13.3272429 80.1924907,13.1438527 79.7303405,13.1438527 C79.4955975,13.1438527 79.3030378,13.1676934 79.1526556,13.2153756 C78.8812341,13.2960685 78.6428268,13.4574518 78.4374268,13.6995305 C78.2723731,13.893927 78.1650899,14.0947393 78.1155738,14.3019733 C78.0660577,14.5092073 78.0413,14.8053825 78.0413,15.1905076 L78.0413,18.2769953 L77.0509831,18.2769953 L77.0509831,12.3846097 Z M84.2464057,10.194909 L85.2367226,10.194909 L85.2367226,18.2769953 L84.2464057,18.2769953 L84.2464057,10.194909 Z M89.9618546,17.6387911 C90.6184013,17.6387911 91.0686243,17.3902974 91.3125369,16.8933025 C91.5564495,16.3963077 91.6784039,15.8433863 91.6784039,15.2345217 C91.6784039,14.6843429 91.5903766,14.2368709 91.4143194,13.8920921 C91.1355622,13.349249 90.6550799,13.0778316 89.9728582,13.0778316 C89.3676615,13.0778316 88.927525,13.3089032 88.6524356,13.7710534 C88.3773462,14.2332036 88.2398036,14.7907098 88.2398036,15.4435886 C88.2398036,16.0707925 88.3773462,16.5934545 88.6524356,17.0115904 C88.927525,17.4297263 89.3639937,17.6387911 89.9618546,17.6387911 Z M90.000367,12.2140552 C90.7596137,12.2140552 91.4014794,12.4671336 91.9259832,12.9732981 C92.450487,13.4794626 92.7127349,14.2240268 92.7127349,15.2070129 C92.7127349,16.1569883 92.4816633,16.9418983 92.0195131,17.5617664 C91.5573629,18.1816346 90.8403073,18.491564 89.8683247,18.491564 C89.0577279,18.491564 88.4140284,18.2173956 87.9372068,17.6690508 C87.4603851,17.1207059 87.2219779,16.3843943 87.2219779,15.4600939 C87.2219779,14.469772 87.4732224,13.6811942 87.9757191,13.0943369 C88.4782157,12.5074795 89.1530916,12.2140552 90.000367,12.2140552 Z M95.5507631,16.7089935 C95.5507631,16.9950865 95.6552955,17.2206565 95.8643635,17.3857101 C96.0734314,17.5507637 96.3210082,17.6332893 96.6071012,17.6332893 C96.9555477,17.6332893 97.2929857,17.5525976 97.6194251,17.3912119 C98.1696039,17.1234582 98.4446892,16.6851556 98.4446892,16.0762911 L98.4446892,15.2785358 C98.3236498,15.3555608 98.1677682,15.4197474 97.9770395,15.4710974 C97.7863109,15.5224474 97.5992529,15.5591255 97.41586,15.5811326 L96.8161681,15.6581573 C96.4567179,15.7058394 96.1871343,15.7810294 96.0074093,15.8837295 C95.702977,16.0561188 95.5507631,16.3312041 95.5507631,16.7089935 Z M97.9495307,14.7063527 C98.176938,14.6770098 98.3291518,14.5816469 98.4061769,14.4202612 C98.4501912,14.3322325 98.472198,14.2056933 98.472198,14.0406397 C98.472198,13.7031967 98.3520774,13.4583708 98.1118327,13.3061546 C97.8715879,13.1539385 97.5277313,13.0778316 97.0802526,13.0778316 C96.5630845,13.0778316 96.1963041,13.2172081 95.9799004,13.4959654 C95.8588611,13.6500154 95.7800033,13.8792532 95.7433247,14.1836854 L94.819029,14.1836854 C94.8373683,13.4574494 95.0730247,12.9522095 95.5260052,12.6679504 C95.9789858,12.3836914 96.5043986,12.241564 97.1022596,12.241564 C97.7954849,12.241564 98.3584928,12.3736049 98.7913001,12.6376907 C99.2204396,12.9017766 99.4350061,13.3125706 99.4350061,13.8700851 L99.4350061,17.2646714 C99.4350061,17.3673714 99.456096,17.449897 99.4982763,17.5122506 C99.5404567,17.5746042 99.6294009,17.6057805 99.7651117,17.6057805 C99.809126,17.6057805 99.8586414,17.6030297 99.9136593,17.5975279 C99.9686771,17.5920261 100.027362,17.5837735 100.089716,17.57277 L100.089716,18.3045041 C99.9356655,18.3485184 99.8182958,18.3760269 99.7376029,18.3870305 C99.65691,18.3980341 99.5468759,18.4035358 99.4074973,18.4035358 C99.0663864,18.4035358 98.8188097,18.2824983 98.6647596,18.0404196 C98.5840667,17.9120445 98.5272158,17.7304883 98.494205,17.4957453 C98.2924728,17.7598311 98.0027163,17.9890689 97.6249269,18.1834654 C97.2471374,18.3778619 96.8308417,18.4750587 96.3760272,18.4750587 C95.8295163,18.4750587 95.3829612,18.3090906 95.0363485,17.9771494 C94.6897359,17.6452081 94.5164321,17.2298294 94.5164321,16.7310006 C94.5164321,16.1844896 94.686985,15.7608583 95.0280959,15.4600939 C95.3692067,15.1593295 95.8166788,14.9741054 96.3705254,14.9044161 L97.9495307,14.7063527 Z M102.586635,15.3995745 C102.586635,16.0304462 102.720509,16.55861 102.988263,16.9840816 C103.256017,17.4095532 103.68515,17.6222858 104.275675,17.6222858 C104.734157,17.6222858 105.111024,17.4251413 105.406287,17.0308465 C105.70155,16.6365517 105.849179,16.070793 105.849179,15.3335534 C105.849179,14.5889781 105.696965,14.0378906 105.392533,13.6802744 C105.0881,13.3226581 104.71215,13.1438527 104.264672,13.1438527 C103.765843,13.1438527 103.361467,13.3345785 103.051533,13.7160358 C102.741599,14.0974931 102.586635,14.6586671 102.586635,15.3995745 Z M104.077612,12.2800763 C104.528758,12.2800763 104.906542,12.3754392 105.210974,12.5661678 C105.387032,12.6762036 105.586927,12.8687633 105.810666,13.1438527 L105.810666,10.1674002 L106.762471,10.1674002 L106.762471,18.2769953 L105.871186,18.2769953 L105.871186,17.457233 C105.640111,17.820351 105.366859,18.082599 105.051423,18.2439847 C104.735988,18.4053705 104.374709,18.4860622 103.967577,18.4860622 C103.31103,18.4860622 102.74252,18.21006 102.262031,17.6580472 C101.781541,17.1060345 101.5413,16.3715568 101.5413,15.4545921 C101.5413,14.5963132 101.760451,13.852666 102.198761,13.2236282 C102.63707,12.5945905 103.263347,12.2800763 104.077612,12.2800763 Z M115.497506,17.6387911 C116.154053,17.6387911 116.604276,17.3902974 116.848188,16.8933025 C117.092101,16.3963077 117.214055,15.8433863 117.214055,15.2345217 C117.214055,14.6843429 117.126028,14.2368709 116.949971,13.8920921 C116.671214,13.349249 116.190731,13.0778316 115.50851,13.0778316 C114.903313,13.0778316 114.463177,13.3089032 114.188087,13.7710534 C113.912998,14.2332036 113.775455,14.7907098 113.775455,15.4435886 C113.775455,16.0707925 113.912998,16.5934545 114.188087,17.0115904 C114.463177,17.4297263 114.899645,17.6387911 115.497506,17.6387911 Z M115.536019,12.2140552 C116.295265,12.2140552 116.937131,12.4671336 117.461635,12.9732981 C117.986139,13.4794626 118.248386,14.2240268 118.248386,15.2070129 C118.248386,16.1569883 118.017315,16.9418983 117.555165,17.5617664 C117.093014,18.1816346 116.375959,18.491564 115.403976,18.491564 C114.593379,18.491564 113.94968,18.2173956 113.472858,17.6690508 C112.996037,17.1207059 112.757629,16.3843943 112.757629,15.4600939 C112.757629,14.469772 113.008874,13.6811942 113.511371,13.0943369 C114.013867,12.5074795 114.688743,12.2140552 115.536019,12.2140552 Z M120.327172,12.3846097 L121.267973,12.3846097 L121.267973,13.2208773 C121.54673,12.8760986 121.841988,12.6285219 122.153756,12.4781397 C122.465524,12.3277575 122.812132,12.2525675 123.193589,12.2525675 C124.029861,12.2525675 124.594703,12.5441579 124.888131,13.1273474 C125.049517,13.4464511 125.130209,13.9030927 125.130209,14.4972858 L125.130209,18.2769953 L124.123387,18.2769953 L124.123387,14.5633069 C124.123387,14.2038568 124.070203,13.9141003 123.963835,13.6940288 C123.787778,13.3272429 123.468679,13.1438527 123.006529,13.1438527 C122.771786,13.1438527 122.579226,13.1676934 122.428844,13.2153756 C122.157423,13.2960685 121.919015,13.4574518 121.713615,13.6995305 C121.548562,13.893927 121.441278,14.0947393 121.391762,14.3019733 C121.342246,14.5092073 121.317489,14.8053825 121.317489,15.1905076 L121.317489,18.2769953 L120.327172,18.2769953 L120.327172,12.3846097 Z M131.725059,10.7395833 L132.72638,10.7395833 L132.72638,12.3846097 L133.667181,12.3846097 L133.667181,13.1933685 L132.72638,13.1933685 L132.72638,17.0390992 C132.72638,17.2444993 132.796068,17.3820419 132.935446,17.4517312 C133.012471,17.4920777 133.140845,17.5122506 133.32057,17.5122506 C133.368252,17.5122506 133.419601,17.5113336 133.474619,17.5094997 C133.529637,17.5076658 133.593823,17.503081 133.667181,17.4957453 L133.667181,18.2769953 C133.553477,18.310006 133.43519,18.3338468 133.312317,18.3485182 C133.189444,18.3631896 133.056486,18.3705252 132.913439,18.3705252 C132.451289,18.3705252 132.137692,18.2522386 131.972638,18.0156617 C131.807585,17.7790848 131.725059,17.4719062 131.725059,17.0941168 L131.725059,13.1933685 L130.927304,13.1933685 L130.927304,12.3846097 L131.725059,12.3846097 L131.725059,10.7395833 Z M135.558906,10.1674002 L136.549223,10.1674002 L136.549223,13.182365 C136.783966,12.8852685 136.994865,12.6762037 137.181925,12.5551643 C137.501029,12.3460964 137.898986,12.241564 138.375807,12.241564 C139.230418,12.241564 139.809931,12.54049 140.114364,13.1383509 C140.279417,13.4647904 140.361943,13.9177641 140.361943,14.4972858 L140.361943,18.2769953 L139.344117,18.2769953 L139.344117,14.5633069 C139.344117,14.1304996 139.2891,13.8132346 139.179064,13.6115023 C138.999339,13.2887308 138.661901,13.1273474 138.16674,13.1273474 C137.75594,13.1273474 137.383658,13.2685579 137.049883,13.550983 C136.716108,13.8334081 136.549223,14.3670735 136.549223,15.1519953 L136.549223,18.2769953 L135.558906,18.2769953 L135.558906,10.1674002 Z M145.180605,12.2525675 C145.598741,12.2525675 146.004033,12.3506812 146.396494,12.5469117 C146.788955,12.7431421 147.087881,12.9971375 147.293281,13.3089055 C147.491345,13.6060021 147.623386,13.9526095 147.689408,14.3487383 C147.748094,14.6201598 147.777436,15.0529606 147.777436,15.6471538 L143.458554,15.6471538 C143.476893,16.2450147 143.618104,16.7245801 143.882189,17.0858641 C144.146275,17.4471482 144.555235,17.6277876 145.109082,17.6277876 C145.62625,17.6277876 146.038878,17.4572347 146.346978,17.1161238 C146.523035,16.9180595 146.647741,16.6888217 146.721098,16.4284038 L147.69491,16.4284038 C147.669235,16.6448074 147.583958,16.8859655 147.439078,17.1518853 C147.294197,17.417805 147.131897,17.6351224 146.952172,17.8038439 C146.651407,18.0972726 146.279125,18.295334 145.835314,18.398034 C145.596904,18.4567198 145.32732,18.4860622 145.026556,18.4860622 C144.292984,18.4860622 143.671291,18.2192295 143.161459,17.685556 C142.651626,17.1518826 142.396714,16.4045676 142.396714,15.4435886 C142.396714,14.4972811 142.65346,13.7288762 143.166961,13.1383509 C143.680461,12.5478257 144.351669,12.2525675 145.180605,12.2525675 Z M146.75961,14.860402 C146.719264,14.4312625 146.625735,14.0883229 146.47902,13.8315728 C146.207599,13.3547511 145.754625,13.1163439 145.120086,13.1163439 C144.665271,13.1163439 144.28382,13.2804781 143.975719,13.6087515 C143.667619,13.9370248 143.504402,14.3542375 143.486063,14.860402 L146.75961,14.860402 Z" id="Download-on-the" fill="#3B566E"></path>
                <path d="M36.1759416,35.8344342 C34.8578153,37.7534755 33.4943349,39.6607127 31.3415962,39.7006895 C29.2229525,39.7406662 28.5437496,38.4513374 26.1261805,38.4513374 C23.7060741,38.4513374 22.9490078,39.6607127 20.9486498,39.7406662 C18.8703967,39.8181015 17.29012,37.6680134 15.9611309,35.7576284 C13.2460478,31.8515538 11.173789,24.7131858 13.960757,19.8957986 C15.3408568,17.503379 17.8138341,15.9896767 20.4936805,15.9497157 C22.5346354,15.9123201 24.4626646,17.3196119 25.7092707,17.3196119 C26.9577799,17.3196119 29.2979614,15.6299962 31.7581888,15.8778205 C32.7880146,15.9201738 35.678314,16.2909503 37.534506,18.9950469 C37.3878185,19.0910383 34.0845738,21.0043192 34.1248534,24.9903474 C34.1652916,29.7518301 38.3158352,31.3345316 38.3640438,31.3560939 C38.3264601,31.4679973 37.7005404,33.6155672 36.1759416,35.8344342 Z M27.1372937,10.6472406 C28.276699,9.3179822 30.2018738,8.32928165 31.790698,8.26284784 C31.9936818,10.1092543 31.2475576,11.9582104 30.1455775,13.2905379 C29.0413772,14.6204731 27.2338696,15.6564689 25.4599812,15.51814 C25.2189379,13.7116945 26.1130183,11.8277194 27.1372937,10.6472406 Z" id="logo" fill="#3B566E" fill-rule="nonzero"></path>
            </g>
        </g>
    </g>
</svg>