<?xml version="1.0" encoding="UTF-8"?>
<svg width="1920px" height="539px" viewBox="0 0 1920 539" version="1.1" xmlns="http://www.w3.org/2000/svg" xmlns:xlink="http://www.w3.org/1999/xlink">
    <!-- Generator: Sketch 59 (86127) - https://sketch.com -->
    <title>Path</title>
    <desc>Created with Sketch.</desc>
    <g id="Page-1" stroke="none" stroke-width="1" fill="none" fill-rule="evenodd">
        <path d="M0,434.915405 C24.1101152,457.712952 52.0916759,475.330361 83.944682,487.767631 C104.499885,495.79358 124.673964,502.449673 140.167599,507.074943 C149.023445,509.718653 156.350176,511.698886 161.344948,512.892214 C175.078261,516.173315 189.412148,519.114527 211.331318,520.198704 C279.005773,523.546051 379.244118,499.076129 438.534456,482.220543 C478.061348,470.983487 599.29872,437.699665 802.246571,382.369077 L1040.22231,316.343737 L1711.53565,139.06491 C1742.98895,131.003741 1771.52124,120.258979 1797.13255,106.830625 C1835.5495,86.6880936 1878.67312,47.6792308 1887.25058,38.2178135 C1892.96889,31.9102019 1903.88536,19.1709307 1920,0 L1920,538.5 L0,538.5 L0,434.915405 Z" id="Path" fill="#F9FAFF"></path>
    </g>
</svg>